<?xml version="1.0" encoding="UTF-8"?>
<svg xmlns="http://www.w3.org/2000/svg" height="595.276pt" xmlns:xlink="http://www.w3.org/1999/xlink" version="1.1" xmlns:inkscape="http://www.inkscape.org/namespaces/inkscape" width="841.89pt" viewBox="0 0 841.89 595.276">
 <defs>
  <path id="GlRobotoSlab-Thin53" d="M5.25875 5.00969 L4.99516 5.00969 L4.99516 4.01359 C4.78682 3.69786 4.50766 3.45865 4.15766 3.29594 C3.80776 3.13312 3.39354 3.05172 2.915 3.05172 C2.27052 3.05172 1.76026 3.19578 1.38422 3.48391 C1.00828 3.77193 0.820313 4.11776 0.820313 4.52141 C0.820313 4.92505 0.975729 5.26036 1.28656 5.52734 C1.5975 5.79422 2.15984 6.03182 2.97359 6.24016 C3.76141 6.44849 4.3563 6.70323 4.75828 7.00437 C5.16036 7.30552 5.36141 7.73276 5.36141 8.28609 C5.36141 8.84922 5.13187 9.29276 4.67281 9.61672 C4.21385 9.94057 3.63932 10.1025 2.94922 10.1025 C2.47401 10.1025 2.01745 10.0138 1.57953 9.83641 C1.14172 9.65901 0.777969 9.38151 0.488281 9.00391 L0.488281 7.83203 L0.752031 7.83203 L0.752031 8.89156 C1.00589 9.22365 1.32974 9.46458 1.72359 9.61438 C2.11755 9.76406 2.52609 9.83891 2.94922 9.83891 C3.57422 9.83891 4.08771 9.69568 4.48969 9.40922 C4.89177 9.12276 5.09281 8.75167 5.09281 8.29594 C5.09281 7.8499 4.92922 7.49344 4.60203 7.22656 C4.27495 6.95958 3.70776 6.71542 2.90047 6.49406 C2.08984 6.27604 1.49656 6.02786 1.12062 5.74953 C0.744688 5.4712 0.556719 5.0651 0.556719 4.53125 C0.556719 4.00062 0.778073 3.57745 1.22078 3.26172 C1.66349 2.94599 2.22823 2.78812 2.915 2.78812 C3.44885 2.78812 3.91516 2.8801 4.31391 3.06406 C4.71276 3.24792 5.02771 3.52375 5.25875 3.89156 L5.25875 5.00969 Z"/>
  <path id="GlRobotoSlab-Thin86" d="M1.5625 3.29094 L1.5625 4.71672 L2.86141 4.71672 L2.86141 4.98531 L1.5625 4.98531 L1.5625 8.63766 C1.5625 9.07057 1.63573 9.37901 1.78219 9.56297 C1.92875 9.74693 2.12245 9.83891 2.36328 9.83891 C2.46745 9.83891 2.56021 9.83568 2.64156 9.82922 C2.72302 9.82266 2.83536 9.8112 2.97859 9.79484 L3.02734 10.0342 C2.92974 10.0603 2.82964 10.0781 2.72703 10.0878 C2.62453 10.0976 2.50818 10.1025 2.37797 10.1025 C2.02318 10.1025 1.7538 9.98698 1.56984 9.75594 C1.38589 9.52479 1.29391 9.15203 1.29391 8.63766 L1.29391 4.98531 L0.317344 4.98531 L0.317344 4.71672 L1.29391 4.71672 L1.29391 3.29094 L1.5625 3.29094 Z"/>
  <path id="GlRobotoSlab-Thin84" d="M1.44531 4.71672 L1.49422 5.63469 L1.49422 5.81547 C1.64068 5.43786 1.85875 5.14406 2.14844 4.93406 C2.43812 4.72406 2.79458 4.61906 3.21781 4.61906 C3.29271 4.61906 3.36187 4.62479 3.42531 4.63625 C3.48875 4.6476 3.54328 4.65979 3.58891 4.67281 L3.55953 4.90719 L3.21781 4.87797 C2.74583 4.87797 2.3625 5.03016 2.06781 5.33453 C1.77323 5.6388 1.58203 6.04 1.49422 6.53812 L1.49422 9.73625 L2.29 9.73625 L2.29 10 L0.434531 10 L0.434531 9.73625 L1.23047 9.73625 L1.23047 4.98047 L0.434531 4.98047 L0.434531 4.71672 L1.23047 4.71672 L1.44531 4.71672 Z"/>
  <path id="GlRobotoSlab-Thin135" d="M0.507813 7.25578 C0.507813 6.48109 0.721823 5.84797 1.14984 5.35641 C1.57797 4.86484 2.1338 4.61906 2.81734 4.61906 C3.04203 4.61906 3.25443 4.64755 3.45453 4.70453 C3.65474 4.76151 3.84115 4.8437 4.01375 4.95109 L4.49219 4.04781 L4.79984 4.04781 L4.23344 5.11234 C4.51667 5.34995 4.73719 5.65266 4.895 6.02047 C5.05292 6.38828 5.13187 6.80005 5.13187 7.25578 L5.13187 7.46094 C5.13187 8.23896 4.91781 8.87375 4.48969 9.36531 C4.06167 9.85677 3.5075 10.1025 2.82719 10.1025 C2.62531 10.1025 2.4324 10.0797 2.24844 10.0341 C2.06458 9.98854 1.89292 9.92182 1.73344 9.83391 L1.26953 10.708 L0.961875 10.708 L1.50391 9.6875 C1.18818 9.45958 0.943229 9.15276 0.769062 8.76703 C0.594896 8.3813 0.507813 7.94594 0.507813 7.46094 L0.507813 7.25578 L0.507813 7.25578 Z M0.771563 7.46094 C0.771563 7.87104 0.844792 8.24948 0.99125 8.59625 C1.13771 8.94292 1.34604 9.21552 1.61625 9.41406 L1.64547 9.41406 L3.88187 5.19531 C3.72885 5.0976 3.56281 5.02109 3.38375 4.96578 C3.20479 4.91047 3.01599 4.88281 2.81734 4.88281 C2.19568 4.88281 1.69927 5.11641 1.32813 5.58359 C0.957083 6.05068 0.771563 6.60807 0.771563 7.25578 L0.771563 7.46094 L0.771563 7.46094 Z M4.86813 7.25578 C4.86813 6.88474 4.80141 6.53401 4.66797 6.20359 C4.53453 5.87318 4.35062 5.60542 4.11625 5.40031 L4.08688 5.39547 L1.86031 9.59469 C1.99708 9.67604 2.14682 9.73708 2.30953 9.77781 C2.47234 9.81854 2.6449 9.83891 2.82719 9.83891 C3.44563 9.83891 3.94036 9.60781 4.31141 9.14563 C4.68255 8.68333 4.86813 8.12177 4.86813 7.46094 L4.86813 7.25578 Z"/>
  <path id="GlRobotoSlab-Thin79" d="M0.434531 9.73625 L1.23047 9.73625 L1.23047 4.98047 L0.434531 4.98047 L0.434531 4.71672 L1.46 4.71672 L1.49422 5.80563 C1.6537 5.43125 1.88318 5.1399 2.18266 4.93156 C2.48214 4.72323 2.84672 4.61906 3.27641 4.61906 C3.73214 4.61906 4.1024 4.73547 4.38719 4.96828 C4.67208 5.20099 4.86823 5.55984 4.97562 6.04484 C5.11563 5.59568 5.34427 5.24495 5.66156 4.99266 C5.97896 4.74036 6.37531 4.61422 6.85062 4.61422 C7.43333 4.61422 7.87604 4.80469 8.17875 5.18562 C8.48146 5.56646 8.63281 6.16536 8.63281 6.98234 L8.63281 9.73141 L9.42875 9.73141 L9.42875 9.99516 L7.56844 9.99516 L7.56844 9.73141 L8.36422 9.73141 L8.36422 6.97266 C8.36422 6.20766 8.2275 5.66729 7.95406 5.35156 C7.68063 5.03583 7.31604 4.87797 6.86031 4.87797 C6.30042 4.87797 5.87724 5.04641 5.59078 5.38328 C5.30432 5.72016 5.12531 6.15552 5.05375 6.68938 C5.05375 6.75448 5.05536 6.81068 5.05859 6.85797 C5.06182 6.90516 5.06344 6.95151 5.06344 6.99703 L5.06344 9.73625 L5.85938 9.73625 L5.85938 10 L3.99906 10 L3.99906 9.73625 L4.795 9.73625 L4.795 6.9775 C4.795 6.20927 4.65828 5.66812 4.38484 5.35406 C4.11141 5.0399 3.74516 4.88281 3.28609 4.88281 C2.73922 4.88281 2.32417 5.04312 2.04094 5.36375 C1.75781 5.68438 1.57719 6.10021 1.49906 6.61125 L1.49906 9.73625 L2.295 9.73625 L2.295 10 L0.434531 10 L0.434531 9.73625 Z"/>
  <path id="GlRoboto-LightItalic69" d="M3.51078 10 C3.49453 9.87625 3.48964 9.75255 3.49609 9.62891 L3.54 9.26266 C3.29594 9.5263 3.01682 9.73302 2.70266 9.88281 C2.38849 10.0326 2.04911 10.1042 1.68453 10.0977 C1.23859 10.0912 0.876458 9.95042 0.598125 9.67531 C0.319792 9.40021 0.195313 9.05432 0.224688 8.63766 C0.250729 8.28932 0.370312 7.9874 0.583438 7.73188 C0.796667 7.47635 1.10021 7.27781 1.49406 7.13625 C1.88802 6.99458 2.32911 6.92375 2.81734 6.92375 L3.89656 6.92875 L3.98438 6.32328 C4.02344 5.96193 3.94531 5.67219 3.75 5.45406 C3.55469 5.23594 3.26661 5.12036 2.88578 5.10734 C2.50161 5.10089 2.16714 5.19615 1.88234 5.39312 C1.59755 5.59 1.41932 5.84958 1.34766 6.17188 L0.776406 6.17188 C0.84151 5.70958 1.07911 5.33281 1.48922 5.04156 C1.89943 4.75021 2.38448 4.60776 2.94437 4.61422 C3.48802 4.62724 3.90714 4.79167 4.20172 5.1075 C4.4963 5.42323 4.61594 5.83333 4.56062 6.33781 L4.12109 8.99406 L4.08203 9.41891 C4.07224 9.59474 4.08526 9.76891 4.12109 9.94141 L4.11141 10 L3.51078 10 L3.51078 10 Z M1.78219 9.585 C2.14031 9.59802 2.48292 9.51255 2.81 9.32859 C3.13719 9.14464 3.40823 8.88339 3.62312 8.54484 L3.82328 7.37797 L2.89063 7.37297 C2.29823 7.37297 1.81484 7.47797 1.44047 7.68797 C1.06609 7.89797 0.859375 8.19828 0.820313 8.58891 C0.791042 8.87536 0.866719 9.11135 1.04734 9.29688 C1.22807 9.4824 1.47302 9.57844 1.78219 9.585 Z"/>
  <path id="GlRoboto-Regular4" d=""/>
  <path id="GlRoboto-Bold48" d="M2.09969 8.82328 L5.21 8.82328 L5.21 10 L0.634844 10 L0.634844 2.89063 L2.09969 2.89063 L2.09969 8.82328 Z"/>
  <path id="GlRoboto-Bold93" d="M2.51469 8.00297 L3.49125 4.71672 L5.00484 4.71672 L2.88094 10.8203 L2.76375 11.0986 C2.44792 11.7887 1.92708 12.1337 1.20125 12.1337 C0.996146 12.1337 0.787813 12.1029 0.57625 12.0411 L0.57625 10.9717 L0.791094 10.9766 C1.05797 10.9766 1.25729 10.9359 1.38906 10.8545 C1.52094 10.7732 1.62432 10.6381 1.69922 10.4492 L1.86531 10.0147 L0.0146875 4.71672 L1.53328 4.71672 L2.51469 8.00297 Z"/>
  <path id="GlRoboto-Bold72" d="M0.322344 7.31937 C0.322344 6.49573 0.507031 5.83979 0.876406 5.35156 C1.24589 4.86323 1.7513 4.61906 2.39266 4.61906 C2.90693 4.61906 3.33172 4.81115 3.66703 5.19531 L3.66703 2.5 L5.08297 2.5 L5.08297 10 L3.80859 10 L3.74031 9.43844 C3.38875 9.87792 2.93625 10.0977 2.38281 10.0977 C1.76104 10.0977 1.26219 9.85271 0.88625 9.36281 C0.510313 8.87292 0.322344 8.19177 0.322344 7.31937 L0.322344 7.31937 Z M1.73344 7.42188 C1.73344 7.91667 1.81969 8.29589 1.99219 8.55953 C2.16469 8.82318 2.41536 8.955 2.74422 8.955 C3.18036 8.955 3.48797 8.77109 3.66703 8.40328 L3.66703 6.31828 C3.4912 5.95047 3.18682 5.76656 2.75391 5.76656 C2.07359 5.76656 1.73344 6.31833 1.73344 7.42188 Z"/>
  <path id="GlRoboto-Bold4" d=""/>
  <path id="GlRoboto-Bold70" d="M5.30281 7.40719 C5.30281 8.25354 5.12214 8.91354 4.76078 9.38719 C4.39943 9.86083 3.89484 10.0977 3.24703 10.0977 C2.67411 10.0977 2.21677 9.87792 1.875 9.43844 L1.81156 10 L0.542031 10 L0.542031 2.5 L1.95313 2.5 L1.95313 5.19047 C2.27865 4.80953 2.70672 4.61906 3.23734 4.61906 C3.88182 4.61906 4.38719 4.85589 4.75344 5.32953 C5.11969 5.80318 5.30281 6.46969 5.30281 7.32906 L5.30281 7.40719 L5.30281 7.40719 Z M3.89156 7.30469 C3.89156 6.77083 3.80693 6.38104 3.63766 6.13531 C3.46839 5.88948 3.21615 5.76656 2.88094 5.76656 C2.43167 5.76656 2.1224 5.95047 1.95313 6.31828 L1.95313 8.40328 C2.12562 8.77443 2.43812 8.96 2.89063 8.96 C3.34635 8.96 3.64583 8.73536 3.78906 8.28609 C3.8574 8.0713 3.89156 7.74417 3.89156 7.30469 Z"/>
  <path id="GlRoboto-Bold40" d="M0.634844 10 L0.634844 2.89063 L2.82234 2.89063 C3.44734 2.89063 4.00641 3.03141 4.49953 3.31297 C4.99266 3.59453 5.37755 3.99495 5.65422 4.51422 C5.93099 5.03339 6.06937 5.62339 6.06937 6.28422 L6.06937 6.61125 C6.06937 7.27208 5.93344 7.85969 5.66156 8.37406 C5.38979 8.88833 5.00651 9.28708 4.51172 9.57031 C4.01693 9.85354 3.45865 9.99677 2.83688 10 L0.634844 10 L0.634844 10 Z M2.09969 4.07719 L2.09969 8.82328 L2.80766 8.82328 C3.38057 8.82328 3.81839 8.63609 4.12109 8.26172 C4.4238 7.88734 4.57844 7.35187 4.585 6.65531 L4.585 6.27922 C4.585 5.55661 4.43526 5.00896 4.13578 4.63625 C3.8363 4.26354 3.39849 4.07719 2.82234 4.07719 L2.09969 4.07719 Z"/>
  <path id="GlRoboto-Bold77" d="M2.03125 10 L0.615313 10 L0.615313 4.71672 L2.03125 4.71672 L2.03125 10 L2.03125 10 Z M0.532188 3.34953 C0.532188 3.13797 0.602969 2.96385 0.744531 2.82719 C0.886198 2.69042 1.07911 2.62203 1.32328 2.62203 C1.56411 2.62203 1.75615 2.69042 1.89938 2.82719 C2.0426 2.96385 2.11422 3.13797 2.11422 3.34953 C2.11422 3.56443 2.04177 3.74026 1.89688 3.87703 C1.75208 4.0137 1.56089 4.08203 1.32328 4.08203 C1.08568 4.08203 0.894427 4.0137 0.749531 3.87703 C0.604635 3.74026 0.532188 3.56443 0.532188 3.34953 Z"/>
  <path id="GlRoboto-Bold87" d="M3.40328 8.54 C3.40328 8.3675 3.31781 8.23161 3.14688 8.13234 C2.97604 8.03307 2.70182 7.94437 2.32422 7.86625 C1.06776 7.6025 0.439531 7.06865 0.439531 6.26469 C0.439531 5.79594 0.63401 5.40448 1.02297 5.09031 C1.41193 4.77615 1.92057 4.61906 2.54891 4.61906 C3.21943 4.61906 3.75568 4.77698 4.15766 5.09281 C4.55974 5.40854 4.76078 5.8187 4.76078 6.32328 L3.34969 6.32328 C3.34969 6.12141 3.28458 5.95458 3.15437 5.82281 C3.02417 5.69094 2.82068 5.625 2.54391 5.625 C2.3063 5.625 2.1224 5.6787 1.99219 5.78609 C1.86198 5.89349 1.79688 6.03021 1.79688 6.19625 C1.79688 6.3525 1.87094 6.47865 2.01906 6.57469 C2.16719 6.67073 2.41703 6.75375 2.76859 6.82375 C3.12016 6.89375 3.41635 6.97266 3.65719 7.06047 C4.40271 7.33391 4.77547 7.80755 4.77547 8.48141 C4.77547 8.96318 4.56875 9.35302 4.15531 9.65094 C3.74188 9.94875 3.20802 10.0977 2.55375 10.0977 C2.11104 10.0977 1.71797 10.0188 1.37453 9.86094 C1.03109 9.70302 0.761719 9.48651 0.566406 9.21141 C0.371094 8.9363 0.273438 8.63927 0.273438 8.32031 L1.61141 8.32031 C1.62443 8.57094 1.71719 8.76302 1.88969 8.89656 C2.06219 9.03 2.29328 9.09672 2.58297 9.09672 C2.85318 9.09672 3.05745 9.04547 3.19578 8.94297 C3.33411 8.84036 3.40328 8.70604 3.40328 8.54 Z"/>
  <path id="GlRoboto-Bold82" d="M1.84078 4.71672 L1.88484 5.32719 C2.26245 4.8551 2.76859 4.61906 3.40328 4.61906 C3.96318 4.61906 4.37984 4.78349 4.65328 5.11234 C4.92672 5.44109 5.06672 5.9326 5.07328 6.58688 L5.07328 10 L3.66219 10 L3.66219 6.62109 C3.66219 6.32161 3.59708 6.10432 3.46687 5.96922 C3.33667 5.83411 3.12016 5.76656 2.81734 5.76656 C2.42026 5.76656 2.12245 5.93583 1.92391 6.27438 L1.92391 10 L0.512656 10 L0.512656 4.71672 L1.84078 4.71672 Z"/>
  <path id="GlRoboto-Bold75" d="M0.336875 7.31937 C0.336875 6.50875 0.52974 5.85604 0.915469 5.36125 C1.3013 4.86646 1.82135 4.61906 2.47562 4.61906 C3.055 4.61906 3.50583 4.81766 3.82813 5.21484 L3.88672 4.71672 L5.16609 4.71672 L5.16609 9.82422 C5.16609 10.2865 5.06109 10.6885 4.85109 11.0303 C4.64109 11.3721 4.34568 11.6325 3.96484 11.8116 C3.58401 11.9906 3.13807 12.0802 2.62703 12.0802 C2.23964 12.0802 1.86198 12.0028 1.49406 11.8481 C1.12625 11.6935 0.847969 11.4942 0.659219 11.25 L1.28422 10.3906 C1.63578 10.7845 2.06219 10.9814 2.56344 10.9814 C2.93781 10.9814 3.22917 10.8813 3.4375 10.6811 C3.64583 10.481 3.75 10.197 3.75 9.82906 L3.75 9.54594 C3.42448 9.91375 2.99641 10.0977 2.46578 10.0977 C1.83109 10.0977 1.3176 9.84948 0.925312 9.35313 C0.533021 8.85667 0.336875 8.19828 0.336875 7.37797 L0.336875 7.31937 L0.336875 7.31937 Z M1.74812 7.42188 C1.74812 7.90042 1.84411 8.27557 2.03609 8.54734 C2.22818 8.81911 2.49187 8.955 2.82719 8.955 C3.25687 8.955 3.56448 8.79391 3.75 8.47172 L3.75 6.25 C3.56125 5.92771 3.25687 5.76656 2.83688 5.76656 C2.49833 5.76656 2.23224 5.90495 2.03859 6.18172 C1.84495 6.45839 1.74812 6.87177 1.74812 7.42188 Z"/>
  <path id="GlRoboto-LightItalic84" d="M2.44141 10.1025 C2.1387 10.096 1.85307 10.0318 1.58453 9.90969 C1.31599 9.7876 1.0987 9.59635 0.932656 9.33594 L0.444375 12.0313 L-0.131875 12.0313 L1.13766 4.71672 L1.67484 4.71672 L1.53812 5.46391 C1.99708 4.8812 2.57161 4.59958 3.26172 4.61906 C3.75651 4.63208 4.14224 4.81604 4.41891 5.17094 C4.69568 5.52573 4.83891 6.02865 4.84859 6.67969 C4.85193 6.88479 4.84219 7.08333 4.81937 7.27531 L4.79984 7.41203 C4.71849 7.98172 4.56547 8.47328 4.34078 8.88672 C4.1162 9.30016 3.84276 9.60859 3.52047 9.81203 C3.19828 10.0155 2.83859 10.1123 2.44141 10.1025 L2.44141 10.1025 Z M4.23828 7.27531 L4.26766 6.81156 C4.27734 6.29073 4.18292 5.88219 3.98438 5.58594 C3.78583 5.28969 3.49125 5.13505 3.10062 5.12203 C2.75885 5.11557 2.4488 5.19943 2.17047 5.37359 C1.89214 5.54766 1.65693 5.80073 1.46484 6.13281 L1.03031 8.67672 C1.13448 8.9762 1.29969 9.20406 1.52594 9.36031 C1.75219 9.51656 2.02318 9.59958 2.33891 9.60938 C2.81089 9.62562 3.21042 9.44901 3.5375 9.07953 C3.86469 8.71005 4.08526 8.19495 4.19922 7.53422 L4.23828 7.27531 Z"/>
  <path id="GlRoboto-LightItalic86" d="M3.45219 5.21 C3.32521 5.18396 3.19661 5.16927 3.06641 5.16594 C2.69536 5.16594 2.35521 5.27906 2.04594 5.50531 C1.73667 5.73156 1.52995 6.01885 1.42578 6.36719 L0.800781 10 L0.224688 10 L1.14266 4.71672 L1.71391 4.71672 L1.53812 5.55656 C1.73021 5.24406 1.96214 5.00646 2.23391 4.84375 C2.50568 4.68094 2.80432 4.60281 3.12984 4.60938 C3.2438 4.60938 3.37729 4.63214 3.53031 4.67766 L3.45219 5.21 Z"/>
  <path id="GlRoboto-LightItalic83" d="M0.36625 7.30953 C0.424792 6.79849 0.58099 6.33057 0.834844 5.90578 C1.0888 5.48099 1.40542 5.15792 1.78469 4.93656 C2.16396 4.71521 2.57495 4.60938 3.01766 4.61906 C3.4538 4.62563 3.82568 4.74531 4.13328 4.97812 C4.44089 5.21083 4.66547 5.52818 4.80703 5.93016 C4.9487 6.33214 4.99677 6.77729 4.95125 7.26563 L4.94141 7.35844 C4.8438 8.19177 4.54839 8.86073 4.05516 9.36531 C3.56203 9.86979 2.97042 10.1139 2.28031 10.0977 C1.68781 10.0879 1.21417 9.86979 0.859375 9.44344 C0.504583 9.01698 0.330417 8.4538 0.336875 7.75391 L0.351563 7.47562 L0.36625 7.30953 L0.36625 7.30953 Z M0.932656 7.47562 C0.890365 7.86292 0.918854 8.22016 1.01812 8.54734 C1.1174 8.87453 1.27604 9.13089 1.49406 9.31641 C1.71219 9.50193 1.98401 9.59958 2.30953 9.60938 C2.66109 9.61583 2.98255 9.5263 3.27391 9.34078 C3.56526 9.15526 3.80531 8.89323 3.99406 8.55469 C4.18292 8.21615 4.305 7.84177 4.36031 7.43156 L4.375 7.27047 C4.43365 6.64224 4.33682 6.12875 4.08453 5.73 C3.83224 5.33125 3.46682 5.12698 2.98828 5.11719 C2.46745 5.10094 2.0174 5.30198 1.63813 5.72031 C1.25896 6.13854 1.02703 6.69432 0.942344 7.38766 L0.932656 7.47562 Z"/>
  <path id="GlRoboto-LightItalic78" d="M1.76766 4.71672 L0.761719 10.6298 C0.696615 11.1214 0.525677 11.5006 0.248906 11.7675 C-0.0277604 12.0345 -0.382552 12.1615 -0.815469 12.1484 C-0.955469 12.1452 -1.13286 12.111 -1.34766 12.0459 L-1.27937 11.5625 C-1.10031 11.6114 -0.957083 11.6358 -0.849688 11.6358 C-0.28 11.6488 0.0651042 11.3054 0.185625 10.6055 L1.19141 4.71672 L1.76766 4.71672 L1.76766 4.71672 Z M1.3575 3.18844 C1.36396 3.08104 1.40542 2.98828 1.48188 2.91016 C1.55844 2.83203 1.65365 2.79135 1.7675 2.78812 C1.88146 2.78479 1.97422 2.82219 2.04578 2.90031 C2.11745 2.97844 2.15005 3.07448 2.14359 3.18844 C2.1338 3.29917 2.08901 3.39198 2.00922 3.46687 C1.92953 3.54167 1.83432 3.58068 1.72359 3.58391 C1.60974 3.58724 1.51781 3.55068 1.44781 3.47422 C1.37781 3.39766 1.34771 3.3024 1.3575 3.18844 Z"/>
  <path id="GlRoboto-LightItalic73" d="M2.31937 10.0977 C1.89615 10.0912 1.5299 9.97323 1.22063 9.74375 C0.911458 9.51417 0.684427 9.20161 0.539531 8.80609 C0.39474 8.41057 0.34349 7.98333 0.385781 7.52438 L0.400469 7.35844 C0.44599 6.8701 0.590833 6.40542 0.835 5.96437 C1.07917 5.52323 1.38839 5.1863 1.76266 4.95359 C2.13703 4.72089 2.53745 4.60938 2.96391 4.61906 C3.35776 4.62563 3.69057 4.73307 3.96234 4.94141 C4.23422 5.14974 4.43198 5.43948 4.55563 5.81062 C4.67938 6.18167 4.71844 6.59177 4.67281 7.04094 L4.63375 7.3975 L0.976563 7.3975 L0.961875 7.51469 C0.913125 7.86948 0.939167 8.20885 1.04 8.53281 C1.14094 8.85667 1.30615 9.1138 1.53563 9.30422 C1.7651 9.49464 2.04099 9.59307 2.36328 9.59953 C2.67578 9.60932 2.95734 9.54911 3.20797 9.41891 C3.4587 9.2887 3.68984 9.11453 3.90141 8.89641 L4.24313 9.17484 C4.00552 9.48078 3.72313 9.71271 3.39594 9.87063 C3.06885 10.0285 2.71 10.1042 2.31937 10.0977 L2.31937 10.0977 Z M2.93453 5.11719 C2.51141 5.10094 2.13219 5.25068 1.79688 5.56641 C1.46156 5.88214 1.20927 6.32646 1.04 6.89938 L4.10641 6.90422 L4.12109 6.83109 C4.17974 6.3688 4.09839 5.97083 3.87703 5.63719 C3.65568 5.30354 3.34151 5.13021 2.93453 5.11719 Z"/>
  <path id="GlRoboto-LightItalic71" d="M2.27047 9.60938 C2.65464 9.6224 2.99401 9.51578 3.28859 9.28953 C3.58318 9.06328 3.77932 8.75812 3.87703 8.37406 L4.42875 8.37406 C4.33104 8.89813 4.07469 9.32047 3.65969 9.64109 C3.24469 9.96172 2.77188 10.1155 2.24125 10.1025 C1.81479 10.0928 1.45672 9.97568 1.16703 9.75109 C0.877344 9.52641 0.668177 9.21552 0.539531 8.81844 C0.41099 8.42125 0.369479 7.97365 0.415 7.47562 L0.434531 7.26563 C0.473594 6.92385 0.557396 6.59182 0.685937 6.26953 C0.814583 5.94724 0.986302 5.66161 1.20109 5.41266 C1.41599 5.16359 1.67234 4.96667 1.97016 4.82187 C2.26807 4.67698 2.60422 4.60938 2.97859 4.61906 C3.51891 4.63208 3.94854 4.81438 4.2675 5.16594 C4.58656 5.5175 4.73635 5.96349 4.71687 6.50391 L4.165 6.49906 C4.17156 6.09208 4.06578 5.76328 3.84766 5.51266 C3.62953 5.26203 3.33167 5.13021 2.95406 5.11719 C2.55042 5.10417 2.19396 5.22135 1.88469 5.46875 C1.57552 5.71615 1.34281 6.06609 1.18656 6.51859 C1.03031 6.97099 0.957083 7.45109 0.966875 7.95891 C0.976563 8.48307 1.0937 8.88594 1.31828 9.1675 C1.54297 9.44906 1.86036 9.59635 2.27047 9.60938 Z"/>
  <path id="GlRoboto-LightItalic88" d="M2.27047 3.36422 L2.03609 4.71672 L3.09578 4.71672 L3.01266 5.19531 L1.95313 5.19531 L1.36719 8.72063 L1.3575 9.02344 C1.3575 9.37823 1.52026 9.56052 1.84578 9.57031 C1.94661 9.57354 2.10448 9.56214 2.31937 9.53609 L2.295 10.0147 C2.10292 10.07 1.9076 10.0944 1.70906 10.088 C1.36719 10.0814 1.11813 9.96177 0.961875 9.72906 C0.805625 9.49625 0.748698 9.15849 0.791094 8.71578 L1.37203 5.19531 L0.424844 5.19531 L0.512656 4.71672 L1.45016 4.71672 L1.68953 3.36422 L2.27047 3.36422 Z"/>
 </defs>
 <g id="Baggrund" inkscape:label="Baggrund" inkscape:groupmode="layer">
  <g transform="translate(40.999, 41.999)">
   <use transform="matrix(26.5 0 0 26.5 0 -73.8843)" xlink:href="#GlRobotoSlab-Thin53" style="fill:#ffffff;stroke:none;"/>
   <use transform="matrix(26.5 0 0 26.5 155 -73.8843)" xlink:href="#GlRobotoSlab-Thin86" style="fill:#ffffff;stroke:none;"/>
   <use transform="matrix(26.5 0 0 26.5 248 -73.8843)" xlink:href="#GlRobotoSlab-Thin84" style="fill:#ffffff;stroke:none;"/>
   <use transform="matrix(26.5 0 0 26.5 351.9 -73.8843)" xlink:href="#GlRobotoSlab-Thin135" style="fill:#ffffff;stroke:none;"/>
   <use transform="matrix(26.5 0 0 26.5 501.3 -73.8843)" xlink:href="#GlRobotoSlab-Thin79" style="fill:#ffffff;stroke:none;"/>
   <path d="M0 0 L762 0 L762 284 L0 284 L0 0 Z" style="fill:none; stroke:none;"/>
  </g>
  <g transform="translate(40.999, 271.999)">
   <use transform="matrix(6.4 0 0 6.4 45.875 -15.99)" xlink:href="#GlRoboto-LightItalic69" style="fill:#ffffff;stroke:none;"/>
   <use transform="matrix(6.4 0 0 6.4 79.375 -15.99)" xlink:href="#GlRoboto-Regular4" style="fill:#ffffff;stroke:none;"/>
   <use transform="matrix(6.4 0 0 6.4 95.175 -15.99)" xlink:href="#GlRoboto-Bold48" style="fill:#ffffff;stroke:none;"/>
   <use transform="matrix(6.4 0 0 6.4 125.875 -15.99)" xlink:href="#GlRoboto-Bold93" style="fill:#ffffff;stroke:none;"/>
   <use transform="matrix(6.4 0 0 6.4 157.475 -15.99)" xlink:href="#GlRoboto-Bold72" style="fill:#ffffff;stroke:none;"/>
   <use transform="matrix(6.4 0 0 6.4 193.475 -15.99)" xlink:href="#GlRoboto-Bold4" style="fill:#ffffff;stroke:none;"/>
   <use transform="matrix(6.4 0 0 6.4 209.375 -15.99)" xlink:href="#GlRoboto-Bold70" style="fill:#ffffff;stroke:none;"/>
   <use transform="matrix(6.4 0 0 6.4 244.975 -15.99)" xlink:href="#GlRoboto-Bold93" style="fill:#ffffff;stroke:none;"/>
   <use transform="matrix(6.4 0 0 6.4 277.075 -15.99)" xlink:href="#GlRoboto-Bold4" style="fill:#ffffff;stroke:none;"/>
   <use transform="matrix(6.4 0 0 6.4 292.975 -15.99)" xlink:href="#GlRoboto-Bold40" style="fill:#ffffff;stroke:none;"/>
   <use transform="matrix(6.4 0 0 6.4 334.475 -15.99)" xlink:href="#GlRoboto-Bold77" style="fill:#ffffff;stroke:none;"/>
   <use transform="matrix(6.4 0 0 6.4 351.375 -15.99)" xlink:href="#GlRoboto-Bold87" style="fill:#ffffff;stroke:none;"/>
   <use transform="matrix(6.4 0 0 6.4 384.275 -15.99)" xlink:href="#GlRoboto-Bold87" style="fill:#ffffff;stroke:none;"/>
   <use transform="matrix(6.4 0 0 6.4 417.175 -15.99)" xlink:href="#GlRoboto-Bold77" style="fill:#ffffff;stroke:none;"/>
   <use transform="matrix(6.4 0 0 6.4 434.075 -15.99)" xlink:href="#GlRoboto-Bold82" style="fill:#ffffff;stroke:none;"/>
   <use transform="matrix(6.4 0 0 6.4 469.875 -15.99)" xlink:href="#GlRoboto-Bold75" style="fill:#ffffff;stroke:none;"/>
   <use transform="matrix(6.4 0 0 6.4 506.375 -15.99)" xlink:href="#GlRoboto-Regular4" style="fill:#ffffff;stroke:none;"/>
   <use transform="matrix(6.4 0 0 6.4 522.175 -15.99)" xlink:href="#GlRoboto-LightItalic84" style="fill:#ffffff;stroke:none;"/>
   <use transform="matrix(6.4 0 0 6.4 556.875 -15.99)" xlink:href="#GlRoboto-LightItalic86" style="fill:#ffffff;stroke:none;"/>
   <use transform="matrix(6.4 0 0 6.4 577.275 -15.99)" xlink:href="#GlRoboto-LightItalic83" style="fill:#ffffff;stroke:none;"/>
   <use transform="matrix(6.4 0 0 6.4 612.275 -15.99)" xlink:href="#GlRoboto-LightItalic78" style="fill:#ffffff;stroke:none;"/>
   <use transform="matrix(6.4 0 0 6.4 626.675 -15.99)" xlink:href="#GlRoboto-LightItalic73" style="fill:#ffffff;stroke:none;"/>
   <use transform="matrix(6.4 0 0 6.4 658.975 -15.99)" xlink:href="#GlRoboto-LightItalic71" style="fill:#ffffff;stroke:none;"/>
   <use transform="matrix(6.4 0 0 6.4 691.175 -15.99)" xlink:href="#GlRoboto-LightItalic88" style="fill:#ffffff;stroke:none;"/>
   <path d="M0 0 L758 0 L758 283 L0 283 L0 0 Z" style="fill:none; stroke:none;"/>
  </g>
 </g>
</svg>
